<svg class='footer__main-logo' width="111" height="80" viewBox="0 0 111 80" fill="none" xmlns="http://www.w3.org/2000/svg">
<path d="M9.69921 66.3306V74.4686H7.50331V71.0619H2.1959V74.4686H0V66.3306C-8.01169e-09 66.0001 0.0651462 65.6727 0.191718 65.3673C0.31829 65.0619 0.503808 64.7844 0.737676 64.5507C0.971545 64.317 1.24918 64.1316 1.55474 64.0052C1.86029 63.8787 2.18777 63.8136 2.51847 63.8137H7.18074C7.84859 63.8137 8.48909 64.0789 8.96137 64.5509C9.43366 65.0229 9.69907 65.663 9.69921 66.3306ZM7.50276 68.8669V66.6669C7.50283 66.5804 7.48585 66.4948 7.4528 66.4149C7.41974 66.335 7.37125 66.2623 7.3101 66.2012C7.24895 66.14 7.17634 66.0914 7.09642 66.0583C7.0165 66.0252 6.93083 66.0082 6.84432 66.0082H2.85379C2.76727 66.0082 2.68161 66.0252 2.60168 66.0583C2.52176 66.0914 2.44915 66.14 2.388 66.2012C2.32685 66.2623 2.27837 66.335 2.24531 66.4149C2.21225 66.4948 2.19527 66.5804 2.19535 66.6669V68.8669H7.50276Z" fill="white"/>
<path d="M18.702 72.0808C18.7632 72.0197 18.8117 71.9471 18.8448 71.8673C18.8779 71.7874 18.8949 71.7018 18.8949 71.6154V63.8137H21.0908V71.9517C21.0908 72.2822 21.0256 72.6096 20.8991 72.915C20.7725 73.2204 20.587 73.4979 20.3531 73.7316C20.1193 73.9653 19.8416 74.1507 19.5361 74.2771C19.2305 74.4036 18.903 74.4687 18.5723 74.4686H13.9123C13.2444 74.4686 12.6039 74.2034 12.1316 73.7314C11.6593 73.2594 11.3939 72.6193 11.3938 71.9517V63.8137H13.5897V71.6154C13.5897 71.7894 13.6586 71.9564 13.7813 72.0798C13.9041 72.2032 14.0707 72.2731 14.2448 72.2741H18.2353C18.322 72.2742 18.4079 72.2572 18.488 72.224C18.5681 72.1908 18.6408 72.1421 18.702 72.0808Z" fill="white"/>
<path d="M32.068 66.0084H28.1572V74.4688H25.9613V66.0084H22.05V63.8134H32.068V66.0084Z" fill="white"/>
<path d="M35.4546 63.8137H41.0813C41.4056 63.8136 41.7269 63.8774 42.0266 64.0015C42.3263 64.1255 42.5986 64.3073 42.828 64.5366C43.0574 64.7658 43.2393 65.038 43.3635 65.3376C43.4876 65.6371 43.5515 65.9582 43.5515 66.2824V71.9993C43.5516 72.3236 43.4878 72.6447 43.3636 72.9443C43.2395 73.244 43.0576 73.5162 42.8282 73.7455C42.5988 73.9748 42.3264 74.1567 42.0267 74.2808C41.727 74.4048 41.4057 74.4687 41.0813 74.4686H35.4546C34.7995 74.4686 34.1712 74.2084 33.7079 73.7453C33.2446 73.2823 32.9844 72.6542 32.9844 71.9993V66.2824C32.9845 65.6276 33.2448 64.9997 33.7081 64.5368C34.1713 64.0738 34.7996 63.8137 35.4546 63.8137ZM35.872 72.2741H40.6639C40.8474 72.2741 41.0233 72.2013 41.153 72.0716C41.2828 71.9419 41.3556 71.7661 41.3556 71.5827V66.6996C41.3556 66.5162 41.2828 66.3404 41.153 66.2107C41.0233 66.081 40.8474 66.0082 40.6639 66.0082H35.872C35.6885 66.0082 35.5126 66.081 35.3829 66.2107C35.2531 66.3404 35.1803 66.5162 35.1803 66.6996V71.5827C35.1803 71.7661 35.2531 71.9419 35.3829 72.0716C35.5126 72.2013 35.6885 72.2741 35.872 72.2741Z" fill="white"/>
<path d="M47.5102 72.0808C47.6338 72.2044 47.8014 72.2739 47.9763 72.2741H54.5923V74.4686H47.6404C47.3097 74.4687 46.9821 74.4036 46.6766 74.2771C46.371 74.1506 46.0933 73.9652 45.8594 73.7314C45.6256 73.4976 45.44 73.2201 45.3135 72.9146C45.187 72.6091 45.1219 72.2817 45.1219 71.9511V66.3306C45.1219 66.0001 45.1869 65.6729 45.3134 65.3675C45.4399 65.0621 45.6253 64.7847 45.8591 64.5509C46.0928 64.3172 46.3704 64.1318 46.6758 64.0053C46.9813 63.8788 47.3087 63.8137 47.6393 63.8137H54.4565V66.0082H47.9763C47.8897 66.0082 47.8041 66.0252 47.7241 66.0583C47.6441 66.0914 47.5715 66.14 47.5103 66.2011C47.4491 66.2623 47.4006 66.3349 47.3675 66.4148C47.3343 66.4947 47.3173 66.5804 47.3173 66.6669V71.6154C47.3176 71.7899 47.3869 71.9572 47.5102 72.0808Z" fill="white"/>
<path d="M65.388 72.2741V74.4686H55.9188V63.8137H65.2506V66.0082H58.1142V68.0436H64.8388V70.2387H58.1142V72.2741H65.388Z" fill="white"/>
<path d="M77.4505 63.8134V74.4599H74.7297L69.1241 67.2355V74.4693H66.9282V63.8134H69.3985L75.2551 71.4067V63.8134H77.4505Z" fill="white"/>
<path d="M88.5055 66.0084H84.5942V74.4688H82.3988V66.0084H78.4875V63.8134H88.5055V66.0084Z" fill="white"/>
<path d="M99.013 72.2741V74.4686H89.5438V63.8137H98.8761V66.0082H91.7392V68.0436H98.4638V70.2387H91.7392V72.2741H99.013Z" fill="white"/>
<path d="M104.907 70.5129H102.749V74.4686H100.553V63.8137H107.552C107.877 63.8136 108.198 63.8774 108.497 64.0015C108.797 64.1255 109.069 64.3073 109.299 64.5366C109.528 64.7658 109.71 65.038 109.834 65.3376C109.959 65.6371 110.022 65.9582 110.022 66.2824V68.0436C110.022 68.6588 109.792 69.2518 109.377 69.7063C108.963 70.1609 108.393 70.4444 107.781 70.5013L110.847 74.4686H107.965L104.907 70.5129ZM102.749 68.3184H107.134C107.225 68.3186 107.315 68.3008 107.399 68.2661C107.483 68.2314 107.559 68.1805 107.623 68.1163C107.687 68.052 107.738 67.9757 107.773 67.8918C107.808 67.8078 107.826 67.7179 107.825 67.627V66.6996C107.825 66.5162 107.753 66.3404 107.623 66.2107C107.493 66.081 107.317 66.0082 107.134 66.0082H102.748L102.749 68.3184Z" fill="white"/>
<path d="M0 79.3132L1.04197 76.5985H1.6073L2.67033 79.3132H2.10002L1.8689 78.6982H0.775937L0.554241 79.3132H0ZM0.900641 78.2694H1.74087L1.3141 77.1675L0.900641 78.2694Z" fill="white"/>
<path d="M3.0437 79.3132V76.5985H4.01639C4.28132 76.5985 4.49507 76.6563 4.65765 76.7719C4.82023 76.8875 4.90133 77.0585 4.90096 77.2849C4.90211 77.3678 4.88309 77.4498 4.84554 77.5237C4.76991 77.6691 4.64665 77.7841 4.49637 77.8495C4.64057 77.894 4.76779 77.9813 4.86106 78.0999C4.9593 78.2263 5.01009 78.3831 5.0046 78.5431C5.00743 78.6861 4.96727 78.8266 4.88932 78.9464C4.80766 79.0667 4.69348 79.1612 4.5601 79.219C4.40107 79.2878 4.22898 79.3213 4.05574 79.3171L3.0437 79.3132ZM3.54806 77.742H3.94157C4.02614 77.744 4.11018 77.7281 4.18821 77.6955C4.25455 77.6681 4.31139 77.6219 4.35171 77.5625C4.39066 77.4994 4.40995 77.4261 4.40713 77.352C4.41013 77.3001 4.4005 77.2482 4.37907 77.2008C4.35764 77.1535 4.32505 77.112 4.28409 77.08C4.18032 77.0108 4.05663 76.9776 3.93215 76.9858H3.54806V77.742ZM3.54806 78.927H3.97261C4.14221 78.927 4.26913 78.8931 4.35337 78.8251C4.39658 78.7875 4.43044 78.7403 4.45228 78.6873C4.47412 78.6343 4.48333 78.577 4.47918 78.5198C4.48284 78.4627 4.47352 78.4054 4.45192 78.3524C4.43033 78.2993 4.39702 78.2518 4.35448 78.2135C4.27061 78.1422 4.14405 78.1065 3.97483 78.1065H3.54806V78.927Z" fill="white"/>
<path d="M6.03847 79.3131V77.0588H5.28748V76.5973H7.29604V77.0588H6.54505V79.3131H6.03847Z" fill="white"/>
<path d="M8.88295 79.3713C8.68728 79.3731 8.49314 79.3366 8.31153 79.2638C8.14092 79.1948 7.98555 79.093 7.85428 78.9641C7.72479 78.8357 7.62261 78.6825 7.55388 78.5137C7.41124 78.1542 7.41124 77.7539 7.55388 77.3945C7.62275 77.2259 7.72492 77.0729 7.85428 76.9447C7.98531 76.8156 8.14075 76.7139 8.31153 76.6455C8.4933 76.5734 8.68738 76.5372 8.88295 76.5391C9.07798 76.5379 9.27131 76.5756 9.4516 76.6499C9.62205 76.7198 9.77705 76.8226 9.90774 76.9524C10.1051 77.1552 10.2388 77.4112 10.2926 77.689C10.3463 77.9667 10.3178 78.2541 10.2104 78.5159C10.1402 78.6845 10.0373 78.8376 9.90774 78.9663C9.77677 79.0951 9.6218 79.1969 9.4516 79.266C9.27077 79.338 9.07757 79.3737 8.88295 79.3713ZM8.88295 78.8959C9.00552 78.8971 9.12714 78.8743 9.24099 78.8289C9.35067 78.7857 9.45011 78.72 9.53296 78.6362C9.6158 78.5523 9.68021 78.4521 9.72207 78.3419C9.76976 78.2182 9.79328 78.0866 9.79135 77.9541C9.79575 77.7802 9.75427 77.6082 9.67108 77.4555C9.59463 77.3181 9.48164 77.2046 9.34463 77.1275C9.20361 77.0489 9.04439 77.0088 8.88295 77.0112C8.7601 77.0098 8.63815 77.0322 8.5238 77.0771C8.41571 77.12 8.31761 77.1847 8.23559 77.2671C8.15216 77.3521 8.08691 77.4531 8.04383 77.5641C7.99613 77.6877 7.97261 77.8194 7.97455 77.9519C7.96995 78.1257 8.01124 78.2977 8.09426 78.4505C8.16993 78.5879 8.2824 78.7014 8.41905 78.7785C8.56074 78.8575 8.7207 78.898 8.88295 78.8959Z" fill="white"/>
<path d="M10.8344 79.3132V76.5985H11.321L12.404 78.3714H12.2061L13.2442 76.5985H13.7258V79.3132H13.2348L13.2425 77.2567L13.3356 77.2899L12.4583 78.7525H12.1036L11.2046 77.2899L11.2883 77.2567L11.296 79.3132H10.8344Z" fill="white"/>
<path d="M15.6798 79.3713C15.4842 79.3731 15.29 79.3366 15.1084 79.2638C14.9378 79.1948 14.7824 79.093 14.6512 78.9641C14.5217 78.8357 14.4195 78.6825 14.3508 78.5137C14.2081 78.1542 14.2081 77.7539 14.3508 77.3945C14.4196 77.2259 14.5218 77.0729 14.6512 76.9447C14.7822 76.8156 14.9376 76.7139 15.1084 76.6455C15.2902 76.5734 15.4843 76.5372 15.6798 76.5391C15.8749 76.5379 16.0682 76.5756 16.2485 76.6499C16.419 76.7197 16.574 76.8225 16.7046 76.9524C16.9019 77.1552 17.0357 77.4112 17.0894 77.689C17.1432 77.9667 17.1146 78.2541 17.0072 78.5159C16.937 78.6851 16.8338 78.8386 16.7035 78.9674C16.5732 79.0962 16.4185 79.1977 16.2485 79.266C16.0677 79.338 15.8744 79.3737 15.6798 79.3713ZM15.6798 78.8959C15.8024 78.8971 15.924 78.8743 16.0379 78.8289C16.1463 78.786 16.2447 78.7213 16.3272 78.6389C16.411 78.5541 16.4765 78.453 16.5195 78.3419C16.5667 78.2181 16.5901 78.0865 16.5882 77.9541C16.5926 77.7802 16.5511 77.6082 16.468 77.4555C16.3916 77.3183 16.2788 77.2048 16.1421 77.1275C16.0008 77.049 15.8414 77.0089 15.6798 77.0112C15.557 77.0098 15.435 77.0322 15.3207 77.0771C15.2127 77.1199 15.1147 77.1846 15.033 77.2671C14.9492 77.3519 14.8838 77.453 14.8407 77.5641C14.793 77.6877 14.7695 77.8194 14.7714 77.9519C14.7668 78.1257 14.8081 78.2977 14.8911 78.4505C14.9668 78.5879 15.0793 78.7014 15.2159 78.7785C15.3576 78.8575 15.5176 78.898 15.6798 78.8959Z" fill="white"/>
<path d="M17.6312 79.3132V76.5985H19.3854V77.0417H18.1356V77.7065H18.6034C18.9023 77.7065 19.1413 77.7743 19.3206 77.9099C19.4996 78.0462 19.5894 78.2462 19.5894 78.5115C19.5939 78.6652 19.5526 78.8168 19.4708 78.947C19.3882 79.0711 19.2702 79.1676 19.1321 79.224C18.9635 79.2917 18.7828 79.3241 18.6011 79.3193L17.6312 79.3132ZM18.1356 78.9254H18.5624C18.7242 78.9254 18.8487 78.8899 18.9359 78.819C18.9803 78.7813 19.0152 78.7338 19.038 78.6802C19.0608 78.6267 19.0708 78.5685 19.0673 78.5104C19.0701 78.4526 19.06 78.3948 19.0379 78.3413C19.0158 78.2877 18.9821 78.2397 18.9392 78.2007C18.8385 78.1212 18.712 78.0818 18.584 78.0899H18.1356V78.9254Z" fill="white"/>
<path d="M20.1219 79.3132V76.5985H20.6208V78.5016L21.8955 76.5985H22.391V79.3132H21.8922V77.3963L20.6174 79.3149L20.1219 79.3132Z" fill="white"/>
<path d="M22.9994 79.3618L22.8187 78.8981C22.8962 78.8749 22.9706 78.8425 23.0404 78.8017C23.1028 78.7642 23.1557 78.7128 23.1951 78.6516C23.2417 78.5739 23.2749 78.4888 23.2932 78.4001C23.3204 78.2697 23.3372 78.1375 23.3436 78.0045C23.3532 77.8449 23.358 77.6499 23.358 77.4195V76.5973H25.3062V79.312H24.8018V77.0577H23.8391V77.3995C23.8391 77.6787 23.8304 77.9205 23.813 78.1247C23.8006 78.3001 23.7724 78.474 23.7288 78.6444C23.6974 78.7703 23.6445 78.8899 23.5725 78.9978C23.5093 79.0896 23.4273 79.1668 23.332 79.2244C23.2279 79.2852 23.116 79.3314 22.9994 79.3618Z" fill="white"/>
<path d="M25.9938 79.3132V76.5985H26.4926V78.5016L27.7673 76.5985H28.2601V79.3132H27.7612V77.3963L26.4865 79.3149L25.9938 79.3132Z" fill="white"/>
<path d="M29.875 79.3132V76.5985H32.118V79.3132H31.6137V77.0589H30.3794V79.3132H29.875Z" fill="white"/>
<path d="M34.0736 79.3713C33.8779 79.3731 33.6838 79.3366 33.5022 79.2638C33.3314 79.1951 33.176 79.0932 33.0449 78.9641C32.9154 78.8356 32.8131 78.6824 32.744 78.5137C32.6021 78.1541 32.6021 77.7541 32.744 77.3945C32.8135 77.2252 32.9165 77.0715 33.0468 76.9428C33.177 76.8142 33.3319 76.713 33.5022 76.6455C33.6839 76.5734 33.878 76.5372 34.0736 76.5391C34.2686 76.5379 34.462 76.5756 34.6422 76.6499C34.8127 76.7198 34.9677 76.8226 35.0984 76.9524C35.2957 77.1552 35.4295 77.4112 35.4832 77.689C35.537 77.9667 35.5084 78.2541 35.401 78.5159C35.3308 78.6845 35.228 78.8376 35.0984 78.9663C34.9674 79.0951 34.8124 79.1969 34.6422 79.266C34.4614 79.338 34.2682 79.3737 34.0736 79.3713ZM34.0736 78.8959C34.1962 78.8971 34.3178 78.8743 34.4316 78.8289C34.5413 78.7857 34.6408 78.72 34.7236 78.6362C34.8064 78.5523 34.8709 78.4521 34.9127 78.3419C34.9602 78.2182 34.9835 78.0866 34.9814 77.9541C34.9861 77.7802 34.9446 77.6081 34.8612 77.4555C34.7851 77.318 34.6722 77.2045 34.5353 77.1275C34.3943 77.0489 34.235 77.0088 34.0736 77.0112C33.9507 77.0097 33.8288 77.0321 33.7144 77.0771C33.6063 77.1199 33.5082 77.1846 33.4262 77.2671C33.3426 77.352 33.2772 77.4531 33.2339 77.5641C33.1867 77.6878 33.1634 77.8194 33.1652 77.9519C33.1608 78.1256 33.2018 78.2975 33.2844 78.4505C33.3602 78.5879 33.4729 78.7015 33.6097 78.7785C33.7513 78.8577 33.9113 78.8982 34.0736 78.8959Z" fill="white"/>
<path d="M37.7328 79.3132V77.0589H36.7468V77.4007C36.7496 77.6751 36.7337 77.9495 36.6991 78.2218C36.6766 78.4127 36.6263 78.5993 36.55 78.7758C36.4904 78.9108 36.3975 79.0286 36.2801 79.1181C36.1575 79.2058 36.0186 79.2679 35.8716 79.301L35.6948 78.8855C35.7969 78.8643 35.8936 78.8226 35.9792 78.763C36.0594 78.701 36.1197 78.6168 36.1526 78.5209C36.2011 78.3813 36.2305 78.2357 36.2402 78.0882C36.2568 77.9073 36.2651 77.6772 36.2651 77.3979V76.5946H38.2371V79.3093L37.7328 79.3132ZM35.6937 80.0001V78.8866L36.0141 78.9021L36.1887 78.85H38.6706V80.0001H38.1934V79.3132H36.172V80.0001H35.6937Z" fill="white"/>
<path d="M40.8282 79.3713C40.6344 79.3735 40.4414 79.3466 40.2556 79.2915C40.0915 79.2427 39.9372 79.1652 39.8 79.0627L40.0306 78.6633C40.1298 78.7482 40.2441 78.8136 40.3676 78.8561C40.4998 78.9037 40.6394 78.9277 40.7799 78.927C40.8896 78.9295 40.9987 78.9119 41.102 78.8749C41.1839 78.8459 41.2566 78.7956 41.3126 78.7292C41.3622 78.6678 41.3887 78.5909 41.3874 78.512C41.3908 78.456 41.3806 78.3999 41.3576 78.3487C41.3347 78.2975 41.2996 78.2526 41.2555 78.2178C41.169 78.1502 41.0334 78.1164 40.8487 78.1164H40.3111V77.7187H40.8099C40.9007 77.7208 40.9912 77.7057 41.0765 77.6743C41.1448 77.6494 41.2045 77.6051 41.2483 77.5469C41.2894 77.4889 41.3106 77.4191 41.3087 77.348C41.3109 77.2793 41.29 77.2118 41.2494 77.1563C41.2038 77.1001 41.1421 77.0591 41.0726 77.0389C40.98 77.0102 40.8835 76.9967 40.7866 76.999C40.6626 76.9989 40.5394 77.0199 40.4225 77.061C40.3123 77.0987 40.2104 77.1574 40.1226 77.2339L39.8882 76.8633C40.0126 76.7547 40.1578 76.6725 40.3149 76.6217C40.4876 76.5647 40.6685 76.5363 40.8503 76.5375C41.0257 76.5333 41.2003 76.5627 41.3647 76.6239C41.4972 76.6723 41.6127 76.7581 41.6972 76.871C41.7764 76.9845 41.817 77.1205 41.8131 77.2588C41.8131 77.3425 41.7941 77.4251 41.7576 77.5004C41.7203 77.5781 41.6701 77.6489 41.6091 77.7098C41.5514 77.7686 41.4834 77.8163 41.4085 77.8505C41.5526 77.8946 41.6805 77.9804 41.7759 78.0971C41.8726 78.2206 41.9219 78.3747 41.915 78.5314C41.9164 78.6844 41.869 78.8338 41.7798 78.958C41.6828 79.0904 41.5524 79.1946 41.4018 79.2599C41.221 79.3383 41.0252 79.3763 40.8282 79.3713Z" fill="white"/>
<path d="M42.1344 79.3132L43.1764 76.5985H43.7389L44.8025 79.3132H44.2339L44.0033 78.6982H42.9103L42.6886 79.3132H42.1344ZM43.0345 78.2694H43.8753L43.448 77.1675L43.0345 78.2694Z" fill="white"/>
<path d="M45.175 79.3131V76.5984H45.6794V77.6538H46.186V78.1164H45.6794V79.3153L45.175 79.3131ZM46.8538 79.3131L45.7454 77.8893L46.733 76.5973H47.3582L46.3606 77.887L47.5018 79.3131H46.8538Z" fill="white"/>
<path d="M47.6312 79.3132L48.6738 76.5985H49.2363L50.2999 79.3132H49.7312L49.5001 78.6982H48.4077L48.186 79.3132H47.6312ZM48.5319 78.2694H49.3721L48.9453 77.1675L48.5319 78.2694Z" fill="white"/>
<path d="M51.4537 79.3713C51.26 79.3736 51.0669 79.3467 50.8812 79.2915C50.7168 79.2428 50.5624 79.1653 50.425 79.0627L50.6556 78.6633C50.7548 78.7482 50.8691 78.8136 50.9926 78.8561C51.1248 78.9037 51.2644 78.9277 51.4049 78.927C51.5146 78.9295 51.6237 78.9119 51.727 78.8749C51.8089 78.8461 51.8817 78.7957 51.9376 78.7292C51.9872 78.6678 52.0137 78.591 52.0124 78.512C52.0159 78.456 52.0058 78.3999 51.9828 78.3487C51.9598 78.2974 51.9247 78.2525 51.8805 78.2179C51.7925 78.1514 51.656 78.1181 51.4709 78.1181H50.9361V77.7204H51.4349C51.5257 77.7225 51.6162 77.7074 51.7015 77.676C51.7698 77.651 51.8295 77.6068 51.8733 77.5486C51.9147 77.4907 51.9359 77.4208 51.9337 77.3497C51.9359 77.281 51.915 77.2135 51.8744 77.158C51.8288 77.1018 51.7671 77.0608 51.6976 77.0406C51.605 77.0119 51.5085 76.9984 51.4116 77.0007C51.2873 77.0009 51.164 77.0223 51.0469 77.0638C50.9368 77.1014 50.8352 77.1601 50.7476 77.2367L50.5126 76.8661C50.637 76.7575 50.7822 76.6753 50.9394 76.6245C51.1123 76.5675 51.2933 76.539 51.4753 76.5403C51.6505 76.5362 51.8249 76.5655 51.9891 76.6267C52.1217 76.6749 52.2373 76.7608 52.3217 76.8738C52.4009 76.9873 52.4415 77.1233 52.4375 77.2616C52.4375 77.3453 52.4186 77.4279 52.3821 77.5032C52.3448 77.5809 52.2945 77.6517 52.2335 77.7126C52.176 77.7715 52.1079 77.8192 52.0329 77.8533C52.177 77.8974 52.3049 77.9832 52.4004 78.0999C52.4973 78.2233 52.5466 78.3774 52.5395 78.5342C52.5411 78.6872 52.4937 78.8367 52.4042 78.9608C52.3074 79.0933 52.1769 79.1975 52.0262 79.2627C51.8456 79.34 51.6502 79.3771 51.4537 79.3713Z" fill="white"/>
<path d="M54.175 79.3132V76.5985H54.6739V78.5016L55.9486 76.5985H56.4419V79.3132H55.9431V77.3963L54.6683 79.3149L54.175 79.3132Z" fill="white"/>
<path d="M57.9037 79.3712C57.7099 79.3734 57.5169 79.3465 57.3311 79.2914C57.1668 79.2426 57.0124 79.1651 56.875 79.0626L57.1061 78.6632C57.2051 78.7481 57.3192 78.8135 57.4425 78.856C57.5748 78.9036 57.7143 78.9276 57.8549 78.9269C57.9647 78.9294 58.074 78.9117 58.1775 78.8748C58.2594 78.8458 58.3321 78.7955 58.3881 78.7291C58.4373 78.6675 58.4635 78.5907 58.4623 78.5119C58.4659 78.4559 58.4557 78.3998 58.4327 78.3486C58.4097 78.2973 58.3746 78.2524 58.3304 78.2177C58.2429 78.1513 58.1087 78.118 57.9209 78.118H57.3838V77.7202H57.8826C57.9736 77.7223 58.0643 77.7073 58.1498 77.6759C58.218 77.6507 58.2776 77.6064 58.3216 77.5485C58.3625 77.4904 58.3836 77.4206 58.3814 77.3496C58.3838 77.2809 58.3631 77.2135 58.3227 77.1579C58.2769 77.1019 58.2153 77.061 58.1459 77.0405C58.0531 77.0118 57.9564 76.9983 57.8593 77.0006C57.7355 77.0005 57.6125 77.0215 57.4957 77.0626C57.3855 77.1002 57.2836 77.1589 57.1959 77.2355L56.9609 76.8648C57.0856 76.7564 57.231 76.6743 57.3882 76.6233C57.5609 76.5663 57.7418 76.5379 57.9236 76.5391C58.099 76.5349 58.2736 76.5643 58.438 76.6255C58.5704 76.6739 58.686 76.7597 58.7705 76.8726C58.8495 76.9862 58.89 77.1221 58.8858 77.2604C58.8856 77.3441 58.8667 77.4266 58.8304 77.502C58.7931 77.5797 58.7428 77.6505 58.6818 77.7114C58.6241 77.7704 58.5559 77.8181 58.4806 77.8521C58.625 77.8961 58.7531 77.9819 58.8487 78.0986C58.9454 78.2222 58.9946 78.3763 58.9872 78.533C58.9888 78.6859 58.9416 78.8353 58.8525 78.9596C58.7554 79.0921 58.6248 79.1963 58.474 79.2615C58.2941 79.339 58.0995 79.3764 57.9037 79.3712Z" fill="white"/>
<path d="M60.2375 79.3131L61.0329 78.1802C60.8476 78.1455 60.6781 78.0532 60.5485 77.9165C60.4296 77.7782 60.3676 77.6 60.375 77.4178C60.3704 77.2613 60.4127 77.107 60.4964 76.9746C60.5807 76.8489 60.7002 76.7508 60.84 76.6926C61.0055 76.6239 61.1835 76.5905 61.3627 76.5946H62.3758V79.3093H61.8715V78.2461H61.5433L60.8228 79.3093L60.2375 79.3131ZM61.3743 77.8367H61.8731V77.0201H61.3976C61.2646 77.0122 61.1326 77.0474 61.0212 77.1203C60.9756 77.1551 60.9393 77.2006 60.9156 77.2528C60.8919 77.305 60.8815 77.3623 60.8855 77.4195C60.8818 77.4771 60.891 77.5348 60.9125 77.5884C60.934 77.642 60.9672 77.6901 61.0096 77.7292C61.0905 77.8007 61.213 77.8395 61.3743 77.8395V77.8367Z" fill="white"/>
<path d="M63.0594 79.3132V76.5985H65.303V79.3132H64.7981V77.0589H63.5644V79.3132H63.0594Z" fill="white"/>
<path d="M67.2549 79.3713C67.0592 79.3731 66.8651 79.3366 66.6835 79.2638C66.5129 79.1948 66.3575 79.093 66.2262 78.9641C66.0967 78.8357 65.9946 78.6825 65.9258 78.5137C65.7832 78.1542 65.7832 77.7539 65.9258 77.3945C65.9947 77.2259 66.0969 77.0729 66.2262 76.9447C66.3573 76.8156 66.5127 76.7139 66.6835 76.6455C66.8653 76.5734 67.0593 76.5372 67.2549 76.5391C67.4499 76.5379 67.6433 76.5756 67.8235 76.6499C67.9949 76.7196 68.1507 76.8226 68.2819 76.953C68.4792 77.1558 68.613 77.4118 68.6667 77.6895C68.7205 77.9673 68.6919 78.2547 68.5845 78.5164C68.5143 78.6856 68.4111 78.8391 68.2808 78.9679C68.1505 79.0967 67.9958 79.1983 67.8258 79.2666C67.6442 79.3386 67.4502 79.3742 67.2549 79.3713ZM67.2549 78.8959C67.3775 78.8971 67.4991 78.8743 67.6129 78.8289C67.7214 78.786 67.8198 78.7213 67.9023 78.6389C67.9861 78.5541 68.0516 78.453 68.0946 78.3419C68.1418 78.2181 68.1651 78.0865 68.1633 77.9541C68.168 77.7802 68.1265 77.6081 68.043 77.4555C67.9666 77.3183 67.8539 77.2048 67.7171 77.1275C67.5759 77.049 67.4165 77.0089 67.2549 77.0112C67.1322 77.0098 67.0104 77.0321 66.8963 77.0771C66.7881 77.1197 66.6899 77.1844 66.6081 77.2671C66.5243 77.3519 66.4589 77.453 66.4158 77.5641C66.3681 77.6877 66.3446 77.8194 66.3465 77.9519C66.3419 78.1257 66.3832 78.2977 66.4662 78.4505C66.5419 78.5879 66.6543 78.7014 66.791 78.7785C66.9327 78.8575 67.0926 78.898 67.2549 78.8959Z" fill="white"/>
<path d="M69.2063 79.3132V76.5985H69.7107V77.6539H70.945V76.5985H71.4499V79.3132H70.945V78.1165H69.7107V79.3154L69.2063 79.3132Z" fill="white"/>
<path d="M72.1376 79.3132V76.5985H72.6364V78.5016L73.9111 76.5985H74.4039V79.3132H73.905V77.3963L72.6303 79.3149L72.1376 79.3132Z" fill="white"/>
<path d="M75.0875 79.3132V76.5985H75.5863V78.5016L76.8611 76.5985H77.3544V79.3132H76.8555V77.3963L75.5808 79.3149L75.0875 79.3132Z" fill="white"/>
<path d="M77.9786 79.9356L77.8157 79.714C77.914 79.6698 78.0055 79.6115 78.0873 79.5412C78.1557 79.4858 78.2122 79.4172 78.2535 79.3395C78.1931 79.3443 78.1324 79.3342 78.0767 79.3102C78.0255 79.2889 77.9814 79.2533 77.9498 79.2077C77.9174 79.1611 77.9007 79.1054 77.9021 79.0487C77.9004 79.0068 77.9076 78.965 77.9232 78.926C77.9387 78.8871 77.9624 78.8518 77.9925 78.8226C78.0235 78.7936 78.0599 78.7711 78.0996 78.7562C78.1394 78.7414 78.1817 78.7346 78.2241 78.7362C78.2722 78.7345 78.3202 78.743 78.3647 78.7613C78.4092 78.7795 78.4494 78.807 78.4824 78.842C78.5517 78.9215 78.5871 79.0249 78.5811 79.1301C78.5803 79.228 78.5574 79.3244 78.514 79.4121C78.4637 79.5141 78.3958 79.6063 78.3134 79.6847C78.2124 79.7817 78.1 79.8659 77.9786 79.9356Z" fill="white"/>
<path d="M80.0376 79.3131V76.5984H80.542V77.6538H81.0491V78.1164H80.542V79.3153L80.0376 79.3131ZM81.7164 79.3131L80.6079 77.8893L81.5956 76.5973H82.2208L81.2231 77.887L82.3643 79.3131H81.7164Z" fill="white"/>
<path d="M83.8579 79.3713C83.6623 79.3731 83.4681 79.3366 83.2865 79.2638C83.1159 79.1948 82.9605 79.093 82.8292 78.9641C82.6998 78.8357 82.5976 78.6825 82.5289 78.5137C82.3862 78.1542 82.3862 77.7539 82.5289 77.3945C82.5977 77.2259 82.6999 77.0729 82.8292 76.9447C82.9603 76.8156 83.1157 76.7139 83.2865 76.6455C83.4683 76.5734 83.6624 76.5372 83.8579 76.5391C84.053 76.5379 84.2463 76.5756 84.4266 76.6499C84.597 76.7198 84.752 76.8226 84.8827 76.9524C85.08 77.1552 85.2138 77.4112 85.2675 77.689C85.3213 77.9667 85.2927 78.2541 85.1853 78.5159C85.1151 78.6845 85.0123 78.8376 84.8827 78.9663C84.7517 79.0951 84.5968 79.1969 84.4266 79.266C84.2457 79.338 84.0525 79.3737 83.8579 79.3713ZM83.8579 78.8959C83.9805 78.8971 84.1021 78.8743 84.216 78.8289C84.3256 78.7857 84.4251 78.72 84.5079 78.6362C84.5908 78.5523 84.6552 78.4521 84.697 78.3419C84.7447 78.2182 84.7683 78.0866 84.7663 77.9541C84.7707 77.7802 84.7292 77.6082 84.6461 77.4555C84.5696 77.3181 84.4566 77.2046 84.3196 77.1275C84.1786 77.0489 84.0194 77.0088 83.8579 77.0112C83.7351 77.0098 83.6131 77.0322 83.4988 77.0771C83.3907 77.12 83.2926 77.1847 83.2106 77.2671C83.1271 77.3521 83.0619 77.4531 83.0188 77.5641C82.9711 77.6877 82.9476 77.8194 82.9495 77.9519C82.9449 78.1257 82.9862 78.2977 83.0692 78.4505C83.1449 78.5879 83.2574 78.7014 83.394 78.7785C83.5357 78.8575 83.6957 78.898 83.8579 78.8959Z" fill="white"/>
<path d="M85.8094 79.3131V76.5984H86.8287C87.0073 76.595 87.1845 76.6297 87.3486 76.7003C87.4929 76.7623 87.6165 76.8642 87.7049 76.9939C87.7935 77.1315 87.8383 77.2925 87.8335 77.456C87.839 77.6186 87.7976 77.7793 87.7144 77.9191C87.6314 78.0491 87.5105 78.1505 87.368 78.2095C87.1932 78.2804 87.0056 78.3143 86.8171 78.3092H86.3144V79.3142L85.8094 79.3131ZM86.3144 77.8793H86.8132C86.9469 77.8874 87.0797 77.852 87.1917 77.7784C87.2819 77.7112 87.3271 77.6065 87.3275 77.4643C87.3318 77.4037 87.3214 77.3429 87.2973 77.2871C87.2732 77.2312 87.236 77.182 87.189 77.1435C87.081 77.0657 86.95 77.0267 86.8171 77.0327H86.3127L86.3144 77.8793Z" fill="white"/>
<path d="M88.3 79.3132V76.5985H90.1069V77.0417H88.8044V77.6993H89.9184V78.1126H88.8044V78.8694H90.1196V79.3126L88.3 79.3132Z" fill="white"/>
<path d="M90.7063 79.3132V76.5985H91.2051V78.5016L92.4799 76.5985H92.9726V79.3132H92.4738V77.3963L91.199 79.3149L90.7063 79.3132Z" fill="white"/>
<path d="M94.5907 79.3132V76.5985H95.0895V78.5016L96.3643 76.5985H96.8575V79.3132H96.3587V77.3963L95.084 79.3149L94.5907 79.3132Z" fill="white"/>
<path d="M98.4719 79.3131V76.5984H98.9768V77.6538H99.4856V78.1164H98.9791V79.3153L98.4719 79.3131ZM100.151 79.3131L99.0422 77.8893L100.03 76.5973H100.655L99.6574 77.887L100.799 79.3131H100.151Z" fill="white"/>
<path d="M101.219 79.3132V76.5985H101.718V78.5016L102.992 76.5985H103.486V79.3132H102.987V77.3963L101.712 79.3149L101.219 79.3132Z" fill="white"/>
<path d="M104.671 79.3131V77.0588H103.919V76.5973H105.927V77.0588H105.176V79.3131H104.671Z" fill="white"/>
<path d="M105.881 79.3132L106.923 76.5985H107.486L108.549 79.3132H107.981L107.75 78.6982H106.657L106.436 79.3132H105.881ZM106.781 78.2694H107.622L107.195 77.1675L106.781 78.2694Z" fill="white"/>
<path d="M108.709 79.3131L109.505 78.1802C109.32 78.1457 109.15 78.0533 109.021 77.9165C108.902 77.7784 108.84 77.6001 108.847 77.4178C108.843 77.2613 108.885 77.107 108.969 76.9746C109.053 76.8489 109.173 76.7508 109.312 76.6926C109.478 76.6239 109.656 76.5905 109.835 76.5946H110.848V79.3093H110.344V78.2461H110.017L109.296 79.3093L108.709 79.3131ZM109.847 77.8367H110.346V77.0201H109.87C109.737 77.0123 109.605 77.0474 109.493 77.1203C109.448 77.1552 109.411 77.2007 109.388 77.2529C109.364 77.3051 109.354 77.3623 109.357 77.4195C109.354 77.4771 109.363 77.5348 109.384 77.5884C109.406 77.642 109.439 77.6901 109.482 77.7292C109.563 77.8007 109.684 77.8395 109.847 77.8395V77.8367Z" fill="white"/>
<path d="M55.5414 0L21.1907 56.4255L35.3609 52.4128L39.0744 52.4804C39.192 52.4829 39.3089 52.4608 39.4174 52.4154C39.526 52.3699 39.6238 52.3022 39.7045 52.2167C40.1324 51.7668 40.961 50.8571 41.2187 50.3191C41.2187 50.3191 40.5231 49.4272 39.8071 49.1263C39.5299 49.0106 38.7269 48.8056 37.8118 48.6167C36.3392 48.3119 34.5789 48.0521 34.2708 48.2759L34.4985 42.9086C34.5943 43.0396 34.7177 43.148 34.8599 43.2261C35.5937 43.6294 37.1245 44.3341 39.3836 44.6759C39.3836 44.6759 39.704 44.7202 40.1745 44.7352C40.7182 44.7529 41.4604 44.7291 42.1332 44.5507C41.8449 43.9081 41.6366 43.2325 41.513 42.5391C41.5014 42.4704 41.4909 42.4006 41.4814 42.3302C41.4814 42.3302 35.4202 41.3551 34.6842 40.5984L38.0767 36.8582C38.0767 36.8582 38.4337 34.0089 40.4838 32.0593C40.0294 33.0301 39.6784 34.0461 39.4368 35.0903C41.5618 34.9241 43.9567 34.8299 46.2379 34.7756C51.1557 34.6599 55.5436 34.7369 55.5436 34.7369C55.5436 34.7369 59.9304 34.6599 64.8493 34.7756C67.1306 34.831 69.5271 34.9258 71.6515 35.0903C71.4101 34.0465 71.0593 33.0309 70.6051 32.0604C72.6558 34.0105 73.0105 36.8582 73.0105 36.8582L76.4047 40.5984C75.6676 41.3551 69.6064 42.3302 69.6064 42.3302C69.597 42.4006 69.5864 42.4704 69.5748 42.5391C69.4507 43.2326 69.2418 43.9082 68.9529 44.5507C69.6258 44.7291 70.3679 44.7529 70.9116 44.7352C71.3822 44.7202 71.7031 44.6759 71.7031 44.6759C73.9627 44.333 75.4924 43.6294 76.2262 43.2261C76.3681 43.1479 76.4915 43.0402 76.5881 42.9103L76.8165 48.2759C76.5072 48.0543 74.747 48.3119 73.2743 48.6167C72.3571 48.8056 71.5523 49.0106 71.2791 49.1263C70.563 49.4272 69.8674 50.3191 69.8674 50.3191C70.1251 50.8571 70.9537 51.7668 71.3805 52.2167C71.4615 52.3022 71.5595 52.3699 71.6682 52.4154C71.7769 52.4608 71.894 52.4829 72.0118 52.4804L75.7252 52.4128L89.8949 56.4255L55.5414 0ZM51.1673 26.6759L55.5414 19.4903L59.9049 26.6582C56.8261 26.5862 53.2513 26.6338 51.1673 26.6759Z" fill="white"/>
<path d="M55.5398 41.1895C48.4804 41.1895 44.6356 41.7778 43.541 41.9762C43.4472 41.993 43.363 42.0442 43.3048 42.1196C43.2467 42.1951 43.2186 42.2895 43.2262 42.3845C43.3487 43.8803 44.1423 45.0992 44.5403 45.621C44.6798 45.8032 44.874 45.9358 45.0945 45.9994C48.7065 47.062 55.5403 47.7257 55.5403 47.7257C55.5403 47.7257 62.3746 47.0609 65.9866 45.9994C66.2071 45.9358 66.4014 45.8032 66.5409 45.621C66.9388 45.0964 67.7325 43.8798 67.855 42.3845C67.8625 42.2895 67.8345 42.1951 67.7763 42.1196C67.7181 42.0442 67.634 41.993 67.5402 41.9762C66.4444 41.7778 62.5997 41.1895 55.5398 41.1895Z" fill="white"/>
<path d="M69.7235 53.4209C68.9903 53.0602 67.7283 51.4563 67.1906 50.7444C67.1111 50.6383 67.0073 50.5528 66.8879 50.4949C66.7686 50.4371 66.6371 50.4087 66.5045 50.412C65.1715 50.4491 60.8867 50.5555 55.5411 50.5555C50.1954 50.5555 45.9111 50.4513 44.5776 50.4153C44.4451 50.4121 44.3137 50.4406 44.1945 50.4984C44.0752 50.5562 43.9715 50.6417 43.892 50.7477C43.355 51.4597 42.0924 53.0635 41.3591 53.4242C40.4097 53.8874 34.6185 53.1854 34.6185 53.1854C34.5198 53.766 34.93 53.9477 34.93 53.9477C36.0661 54.679 55.5411 54.5079 55.5411 54.5079C55.5411 54.5079 75.0165 54.6813 76.1527 53.95C76.1527 53.95 76.5629 53.7682 76.4642 53.1876C76.4642 53.1854 70.6729 53.8874 69.7235 53.4209Z" fill="white"/>
<path d="M55.5398 41.1895C62.5997 41.1895 66.4444 41.7778 67.5391 41.9762C67.6329 41.993 67.717 42.0442 67.7752 42.1196C67.8334 42.1951 67.8614 42.2895 67.8539 42.3845C67.7314 43.8803 66.9377 45.0992 66.5398 45.621C66.4003 45.8032 66.206 45.9358 65.9855 45.9994C62.3735 47.062 55.5392 47.7257 55.5392 47.7257C55.5392 47.7257 48.7054 47.0609 45.0934 45.9994C44.8729 45.9358 44.6787 45.8032 44.5392 45.621C44.1423 45.0969 43.3487 43.8781 43.2262 42.3823C43.2186 42.2873 43.2467 42.1929 43.3048 42.1174C43.363 42.042 43.4472 41.9908 43.541 41.9739C44.6356 41.7778 48.4804 41.1895 55.5398 41.1895Z" fill="white"/>
<path d="M41.3591 53.4209C42.0924 53.0602 43.3544 51.4563 43.892 50.7444C43.9715 50.6384 44.0752 50.5529 44.1945 50.4951C44.3137 50.4372 44.4451 50.4088 44.5776 50.412C45.9111 50.4491 50.196 50.5555 55.5411 50.5555C60.8862 50.5555 65.1715 50.4491 66.5045 50.412C66.6371 50.4087 66.7686 50.4371 66.8879 50.4949C67.0073 50.5528 67.1111 50.6383 67.1906 50.7444C67.7277 51.4563 68.9903 53.0602 69.7235 53.4209C70.6729 53.8874 76.4642 53.1876 76.4642 53.1876C76.5629 53.7682 76.1527 53.95 76.1527 53.95C75.0165 54.6813 55.5411 54.5101 55.5411 54.5101C55.5411 54.5101 36.0661 54.6813 34.93 53.95C34.93 53.95 34.5198 53.7682 34.6185 53.1876C34.6185 53.1854 40.4097 53.8874 41.3591 53.4209Z" fill="white"/>
</svg>
